# xmcd
#
# Track frame offsets:
#	150
#	9636
#	27717
#	44668
#
# Disc length: 814 seconds
#
# Revision: 1
# Processed by: cddbd v1.4PL0 Copyright (c) Steve Scherf et al.
# Submitted via: CDmax 1.8
#
DISCID=32032c04
DTITLE=Catherine Britt - In The Pines
DYEAR=1999
DGENRE=Country
TTITLE0=That Don't Bother Me
TTITLE1=It's All Up To You
TTITLE2=In The Pines
TTITLE3=Slow And Steady
EXTD=
EXTT0=
EXTT1=
EXTT2=
EXTT3=live
PLAYORDER=
